<?xml version="1.0" encoding="UTF-8"?>
<svg id="Layer_1" data-name="Layer 1" xmlns="http://www.w3.org/2000/svg" viewBox="0 0 80.53 94.42">
  <defs>
    <style>
      .cls-1 {
        stroke-width: 0px;
      }
    </style>
  </defs>
  <path class="cls-1" d="M14.73,71.73c0-3.39-.02-6.78,0-10.17.02-2.77.86-5.28,2.47-7.55,1.25-1.75,3-2.79,4.9-3.62,3.66-1.6,7.18-.94,10.52.88,2.16,1.18,3.65,3.07,4.62,5.32.46,1.06.89,2.14.95,3.33.01.22.2.56.37.6.19.06.52-.09.69-.25.65-.62,1.25-1.29,1.88-1.93,3.37-3.4,6.74-6.79,10.11-10.18,2.23-2.24,4.48-4.45,6.7-6.69,1.38-1.39,3-2.42,4.78-3.17.69-.29,1.47-.41,2.22-.5,2.54-.32,4.97.04,7.22,1.33,1.94,1.11,3.58,2.55,4.64,4.54,1.57,2.93,2.06,6.05,1.03,9.25-.65,2.02-1.98,3.68-3.46,5.17-1.08,1.08-2.26,2.06-3.36,3.12-.93.9-1.84,1.82-2.71,2.78-.68.75-.65,1.1.03,1.79,1.24,1.25,2.53,2.44,3.74,3.72,2.1,2.22,4.5,4.14,6.31,6.63,1.65,2.29,2.35,4.86,2.06,7.62-.22,2.04-.77,4.09-2.18,5.68-2.54,2.87-5.47,5-9.57,4.98-3.42-.01-6.15-1.45-8.52-3.74-2.12-2.06-4.19-4.16-6.26-6.27-2.7-2.75-5.36-5.54-8.08-8.26-2.13-2.14-4.33-4.22-6.5-6.32-.24-.23-.52-.57-.84-.3-.2.17-.29.57-.29.87-.02,3.36-.03,6.72,0,10.07.02,2.11-.14,4.18-.85,6.19-.59,1.65-1.42,3.19-2.69,4.38-2.12,1.97-4.67,3.16-7.61,3.31-3.09.16-5.79-.82-8.19-2.79-2.25-1.86-3.45-4.25-3.88-7.06-.18-1.14-.27-2.31-.28-3.47-.04-3.09-.01-6.18-.01-9.28h0Z"/>
  <path class="cls-1" d="M38.91,24.33c0,2.53.02,5.05,0,7.58-.02,1.5-.29,2.98-.84,4.39-1.44,3.68-4.1,5.91-7.98,6.76-1.28.28-2.55.48-3.85.39-3.54-.24-6.49-1.68-8.58-4.57-1.01-1.4-1.6-3.02-1.92-4.77-.37-2.02-.36-4.03-.37-6.06,0-2.86-.03-5.72.03-8.58.04-1.82.15-3.66.39-5.46.12-.93.55-1.84.94-2.71.94-2.09,2.43-3.75,4.43-4.84,2.22-1.21,4.64-1.76,7.21-1.49,3.31.35,5.94,1.85,8.01,4.46,1.76,2.22,2.45,4.76,2.51,7.5.06,2.46.01,4.92.01,7.38,0,0,0,0,0,0Z"/>
  <path class="cls-1" d="M54.23,4.86c.03,2.66-1.85,4.79-4.8,4.73-2.95-.07-4.65-1.86-4.78-4.59-.13-2.69,1.71-4.96,4.7-4.97,2.71-.01,4.84,1.93,4.87,4.83Z"/>
  <path class="cls-1" d="M4.87,9.49C2.51,9.52-.22,7.44.01,4.45.17,2.44,2.25-.07,4.93,0c3.11.08,4.74,2.68,4.65,4.96-.11,2.71-2.17,4.57-4.71,4.53Z"/>
</svg>